<?xml version="1.0" encoding="UTF-8" standalone="no"?>
<!DOCTYPE svg PUBLIC "-//W3C//DTD SVG 1.1//EN"
 "http://www.w3.org/Graphics/SVG/1.1/DTD/svg11.dtd">
<!-- Generated by graphviz version 2.47.0 (20210316.0004)
 -->
<!-- Title: dependencies Pages: 1 -->
<svg width="504pt" height="211pt"
 viewBox="0.00 0.00 504.00 211.00" xmlns="http://www.w3.org/2000/svg" xmlns:xlink="http://www.w3.org/1999/xlink">
<g id="graph0" class="graph" transform="scale(1 1) rotate(0) translate(4 207)">
<title>dependencies</title>
<polygon fill="white" stroke="transparent" points="-4,4 -4,-207 500,-207 500,4 -4,4"/>
<text text-anchor="start" x="227.01" y="-42.4" font-family="Times-12" font-weight="bold" font-size="14.00">Legend</text>
<polygon fill="#ffffb3" stroke="transparent" points="14,-10 14,-30 34,-30 34,-10 14,-10"/>
<text text-anchor="start" x="37.63" y="-15.4" font-family="Times-12" font-size="14.00"> &#160;Declarations</text>
<polygon fill="#8dd3c7" stroke="transparent" points="127,-10 127,-30 147,-30 147,-10 127,-10"/>
<text text-anchor="start" x="150.73" y="-15.4" font-family="Times-12" font-size="14.00"> &#160;Module</text>
<polygon fill="#80b1d3" stroke="transparent" points="213,-10 213,-30 233,-30 233,-10 213,-10"/>
<text text-anchor="start" x="236.78" y="-15.4" font-family="Times-12" font-size="14.00"> &#160;Bootstrap</text>
<polygon fill="#fdb462" stroke="transparent" points="310,-10 310,-30 330,-30 330,-10 310,-10"/>
<text text-anchor="start" x="333.67" y="-15.4" font-family="Times-12" font-size="14.00"> &#160;Providers</text>
<polygon fill="#fb8072" stroke="transparent" points="406,-10 406,-30 426,-30 426,-10 406,-10"/>
<text text-anchor="start" x="429.73" y="-15.4" font-family="Times-12" font-size="14.00"> &#160;Exports</text>
<g id="clust1" class="cluster">
<title>cluster_NxIconModule</title>
<polygon fill="none" stroke="black" stroke-dasharray="1,5" points="106,-70 106,-195 390,-195 390,-70 106,-70"/>
</g>
<g id="clust3" class="cluster">
<title>cluster_NxIconModule_imports</title>
<polygon fill="none" stroke="black" points="114,-78 114,-130 382,-130 382,-78 114,-78"/>
</g>
<!-- NxIconComponent -->
<g id="node1" class="node">
<title>NxIconComponent</title>
<polygon fill="#8dd3c7" stroke="black" points="373.81,-122 370.81,-126 349.81,-126 346.81,-122 250.19,-122 250.19,-86 373.81,-86 373.81,-122"/>
<text text-anchor="middle" x="312" y="-99.8" font-family="Times,serif" font-size="14.00">NxIconComponent</text>
</g>
<!-- NxIconModule -->
<g id="node3" class="node">
<title>NxIconModule</title>
<polygon fill="#8dd3c7" stroke="black" points="294.53,-187 291.53,-191 270.53,-191 267.53,-187 193.47,-187 193.47,-151 294.53,-151 294.53,-187"/>
<text text-anchor="middle" x="244" y="-164.8" font-family="Times,serif" font-size="14.00">NxIconModule</text>
</g>
<!-- NxIconComponent&#45;&gt;NxIconModule -->
<g id="edge1" class="edge">
<title>NxIconComponent&#45;&gt;NxIconModule</title>
<path fill="none" stroke="black" d="M272.55,-122.11C272.55,-122.11 272.55,-140.99 272.55,-140.99"/>
<polygon fill="black" stroke="black" points="269.05,-140.99 272.55,-150.99 276.05,-140.99 269.05,-140.99"/>
</g>
<!-- NxIconDirective -->
<g id="node2" class="node">
<title>NxIconDirective</title>
<polygon fill="#8dd3c7" stroke="black" points="232.06,-122 229.06,-126 208.06,-126 205.06,-122 121.94,-122 121.94,-86 232.06,-86 232.06,-122"/>
<text text-anchor="middle" x="177" y="-99.8" font-family="Times,serif" font-size="14.00">NxIconDirective</text>
</g>
<!-- NxIconDirective&#45;&gt;NxIconModule -->
<g id="edge2" class="edge">
<title>NxIconDirective&#45;&gt;NxIconModule</title>
<path fill="none" stroke="black" d="M212.63,-122.11C212.63,-122.11 212.63,-140.99 212.63,-140.99"/>
<polygon fill="black" stroke="black" points="209.13,-140.99 212.63,-150.99 216.13,-140.99 209.13,-140.99"/>
</g>
</g>
</svg>
