<?xml version="1.0" encoding="UTF-8" standalone="no"?>
<!DOCTYPE svg PUBLIC "-//W3C//DTD SVG 1.1//EN"
 "http://www.w3.org/Graphics/SVG/1.1/DTD/svg11.dtd">
<!-- Generated by graphviz version 2.47.0 (20210316.0004)
 -->
<!-- Title: dependencies Pages: 1 -->
<svg width="504pt" height="284pt"
 viewBox="0.00 0.00 504.00 284.00" xmlns="http://www.w3.org/2000/svg" xmlns:xlink="http://www.w3.org/1999/xlink">
<g id="graph0" class="graph" transform="scale(1 1) rotate(0) translate(4 280)">
<title>dependencies</title>
<polygon fill="white" stroke="transparent" points="-4,4 -4,-280 500,-280 500,4 -4,4"/>
<text text-anchor="start" x="227.01" y="-42.4" font-family="Times-12" font-weight="bold" font-size="14.00">Legend</text>
<polygon fill="#ffffb3" stroke="transparent" points="14,-10 14,-30 34,-30 34,-10 14,-10"/>
<text text-anchor="start" x="37.63" y="-15.4" font-family="Times-12" font-size="14.00"> &#160;Declarations</text>
<polygon fill="#8dd3c7" stroke="transparent" points="127,-10 127,-30 147,-30 147,-10 127,-10"/>
<text text-anchor="start" x="150.73" y="-15.4" font-family="Times-12" font-size="14.00"> &#160;Module</text>
<polygon fill="#80b1d3" stroke="transparent" points="213,-10 213,-30 233,-30 233,-10 213,-10"/>
<text text-anchor="start" x="236.78" y="-15.4" font-family="Times-12" font-size="14.00"> &#160;Bootstrap</text>
<polygon fill="#fdb462" stroke="transparent" points="310,-10 310,-30 330,-30 330,-10 310,-10"/>
<text text-anchor="start" x="333.67" y="-15.4" font-family="Times-12" font-size="14.00"> &#160;Providers</text>
<polygon fill="#fb8072" stroke="transparent" points="406,-10 406,-30 426,-30 426,-10 406,-10"/>
<text text-anchor="start" x="429.73" y="-15.4" font-family="Times-12" font-size="14.00"> &#160;Exports</text>
<g id="clust1" class="cluster">
<title>cluster_IconModule</title>
<polygon fill="none" stroke="black" stroke-dasharray="1,5" points="103,-70 103,-268 393,-268 393,-70 103,-70"/>
</g>
<g id="clust3" class="cluster">
<title>cluster_IconModule_imports</title>
<polygon fill="none" stroke="black" points="114,-78 114,-130 382,-130 382,-78 114,-78"/>
</g>
<g id="clust4" class="cluster">
<title>cluster_IconModule_exports</title>
<polygon fill="none" stroke="black" points="111,-208 111,-260 385,-260 385,-208 111,-208"/>
</g>
<!-- NxIconComponent -->
<g id="node1" class="node">
<title>NxIconComponent</title>
<polygon fill="#8dd3c7" stroke="black" points="373.81,-122 370.81,-126 349.81,-126 346.81,-122 250.19,-122 250.19,-86 373.81,-86 373.81,-122"/>
<text text-anchor="middle" x="312" y="-99.8" font-family="Times,serif" font-size="14.00">NxIconComponent</text>
</g>
<!-- IconModule -->
<g id="node3" class="node">
<title>IconModule</title>
<polygon fill="#8dd3c7" stroke="black" points="220.43,-187 217.43,-191 196.43,-191 193.43,-187 135.57,-187 135.57,-151 220.43,-151 220.43,-187"/>
<text text-anchor="middle" x="178" y="-164.8" font-family="Times,serif" font-size="14.00">IconModule</text>
</g>
<!-- NxIconComponent&#45;&gt;IconModule -->
<g id="edge1" class="edge">
<title>NxIconComponent&#45;&gt;IconModule</title>
<path fill="none" stroke="black" d="M332.64,-122.02C332.64,-139.37 332.64,-163 332.64,-163 332.64,-163 230.25,-163 230.25,-163"/>
<polygon fill="black" stroke="black" points="230.25,-159.5 220.25,-163 230.25,-166.5 230.25,-159.5"/>
</g>
<!-- NxIconDirective -->
<g id="node2" class="node">
<title>NxIconDirective</title>
<polygon fill="#8dd3c7" stroke="black" points="232.06,-122 229.06,-126 208.06,-126 205.06,-122 121.94,-122 121.94,-86 232.06,-86 232.06,-122"/>
<text text-anchor="middle" x="177" y="-99.8" font-family="Times,serif" font-size="14.00">NxIconDirective</text>
</g>
<!-- NxIconDirective&#45;&gt;IconModule -->
<g id="edge2" class="edge">
<title>NxIconDirective&#45;&gt;IconModule</title>
<path fill="none" stroke="black" d="M178,-122.11C178,-122.11 178,-140.99 178,-140.99"/>
<polygon fill="black" stroke="black" points="174.5,-140.99 178,-150.99 181.5,-140.99 174.5,-140.99"/>
</g>
<!-- NxIconComponent  -->
<g id="node4" class="node">
<title>NxIconComponent </title>
<polygon fill="#fb8072" stroke="black" points="377.31,-252 250.69,-252 250.69,-216 377.31,-216 377.31,-252"/>
<text text-anchor="middle" x="314" y="-229.8" font-family="Times,serif" font-size="14.00">NxIconComponent </text>
</g>
<!-- IconModule&#45;&gt;NxIconComponent  -->
<g id="edge3" class="edge">
<title>IconModule&#45;&gt;NxIconComponent </title>
<path fill="none" stroke="black" stroke-dasharray="5,2" d="M220.31,-175C252.61,-175 291.61,-175 291.61,-175 291.61,-175 291.61,-205.98 291.61,-205.98"/>
<polygon fill="black" stroke="black" points="288.11,-205.98 291.61,-215.98 295.11,-205.98 288.11,-205.98"/>
</g>
<!-- NxIconDirective  -->
<g id="node5" class="node">
<title>NxIconDirective </title>
<polygon fill="#fb8072" stroke="black" points="232.57,-252 119.43,-252 119.43,-216 232.57,-216 232.57,-252"/>
<text text-anchor="middle" x="176" y="-229.8" font-family="Times,serif" font-size="14.00">NxIconDirective </text>
</g>
<!-- IconModule&#45;&gt;NxIconDirective  -->
<g id="edge4" class="edge">
<title>IconModule&#45;&gt;NxIconDirective </title>
<path fill="none" stroke="black" stroke-dasharray="5,2" d="M178,-187.11C178,-187.11 178,-205.99 178,-205.99"/>
<polygon fill="black" stroke="black" points="174.5,-205.99 178,-215.99 181.5,-205.99 174.5,-205.99"/>
</g>
</g>
</svg>
