<?xml version="1.0" encoding="UTF-8" standalone="no"?>
<!DOCTYPE svg PUBLIC "-//W3C//DTD SVG 1.1//EN"
 "http://www.w3.org/Graphics/SVG/1.1/DTD/svg11.dtd">
<!-- Generated by graphviz version 2.47.0 (20210316.0004)
 -->
<!-- Title: dependencies Pages: 1 -->
<svg width="504pt" height="284pt"
 viewBox="0.00 0.00 504.00 284.00" xmlns="http://www.w3.org/2000/svg" xmlns:xlink="http://www.w3.org/1999/xlink">
<g id="graph0" class="graph" transform="scale(1 1) rotate(0) translate(4 280)">
<title>dependencies</title>
<polygon fill="white" stroke="transparent" points="-4,4 -4,-280 500,-280 500,4 -4,4"/>
<text text-anchor="start" x="227.01" y="-42.4" font-family="Times-12" font-weight="bold" font-size="14.00">Legend</text>
<polygon fill="#ffffb3" stroke="transparent" points="14,-10 14,-30 34,-30 34,-10 14,-10"/>
<text text-anchor="start" x="37.63" y="-15.4" font-family="Times-12" font-size="14.00"> &#160;Declarations</text>
<polygon fill="#8dd3c7" stroke="transparent" points="127,-10 127,-30 147,-30 147,-10 127,-10"/>
<text text-anchor="start" x="150.73" y="-15.4" font-family="Times-12" font-size="14.00"> &#160;Module</text>
<polygon fill="#80b1d3" stroke="transparent" points="213,-10 213,-30 233,-30 233,-10 213,-10"/>
<text text-anchor="start" x="236.78" y="-15.4" font-family="Times-12" font-size="14.00"> &#160;Bootstrap</text>
<polygon fill="#fdb462" stroke="transparent" points="310,-10 310,-30 330,-30 330,-10 310,-10"/>
<text text-anchor="start" x="333.67" y="-15.4" font-family="Times-12" font-size="14.00"> &#160;Providers</text>
<polygon fill="#fb8072" stroke="transparent" points="406,-10 406,-30 426,-30 426,-10 406,-10"/>
<text text-anchor="start" x="429.73" y="-15.4" font-family="Times-12" font-size="14.00"> &#160;Exports</text>
<g id="clust1" class="cluster">
<title>cluster_IconModule</title>
<polygon fill="none" stroke="black" stroke-dasharray="1,5" points="40,-70 40,-268 330,-268 330,-70 40,-70"/>
</g>
<g id="clust3" class="cluster">
<title>cluster_IconModule_imports</title>
<polygon fill="none" stroke="black" points="54,-78 54,-130 322,-130 322,-78 54,-78"/>
</g>
<g id="clust4" class="cluster">
<title>cluster_IconModule_exports</title>
<polygon fill="none" stroke="black" points="48,-208 48,-260 322,-260 322,-208 48,-208"/>
</g>
<g id="clust7" class="cluster">
<title>cluster_NxIconModule</title>
<polygon fill="none" stroke="black" stroke-dasharray="1,5" points="338,-143 338,-195 456,-195 456,-143 338,-143"/>
</g>
<!-- NxIconComponent -->
<g id="node1" class="node">
<title>NxIconComponent</title>
<polygon fill="#8dd3c7" stroke="black" points="313.81,-122 310.81,-126 289.81,-126 286.81,-122 190.19,-122 190.19,-86 313.81,-86 313.81,-122"/>
<text text-anchor="middle" x="252" y="-99.8" font-family="Times,serif" font-size="14.00">NxIconComponent</text>
</g>
<!-- IconModule -->
<g id="node3" class="node">
<title>IconModule</title>
<polygon fill="#8dd3c7" stroke="black" points="226.43,-187 223.43,-191 202.43,-191 199.43,-187 141.57,-187 141.57,-151 226.43,-151 226.43,-187"/>
<text text-anchor="middle" x="184" y="-164.8" font-family="Times,serif" font-size="14.00">IconModule</text>
</g>
<!-- NxIconComponent&#45;&gt;IconModule -->
<g id="edge1" class="edge">
<title>NxIconComponent&#45;&gt;IconModule</title>
<path fill="none" stroke="black" d="M208.28,-122.11C208.28,-122.11 208.28,-140.99 208.28,-140.99"/>
<polygon fill="black" stroke="black" points="204.78,-140.99 208.28,-150.99 211.78,-140.99 204.78,-140.99"/>
</g>
<!-- NxIconModule -->
<g id="node6" class="node">
<title>NxIconModule</title>
<polygon fill="#8dd3c7" stroke="black" points="447.53,-187 444.53,-191 423.53,-191 420.53,-187 346.47,-187 346.47,-151 447.53,-151 447.53,-187"/>
<text text-anchor="middle" x="397" y="-164.8" font-family="Times,serif" font-size="14.00">NxIconModule</text>
</g>
<!-- NxIconComponent&#45;&gt;NxIconModule -->
<g id="edge5" class="edge">
<title>NxIconComponent&#45;&gt;NxIconModule</title>
<path fill="none" stroke="black" d="M269.93,-122.11C269.93,-141.34 269.93,-169 269.93,-169 269.93,-169 336.42,-169 336.42,-169"/>
<polygon fill="black" stroke="black" points="336.42,-172.5 346.42,-169 336.42,-165.5 336.42,-172.5"/>
</g>
<!-- NxIconDirective -->
<g id="node2" class="node">
<title>NxIconDirective</title>
<polygon fill="#8dd3c7" stroke="black" points="172.06,-122 169.06,-126 148.06,-126 145.06,-122 61.94,-122 61.94,-86 172.06,-86 172.06,-122"/>
<text text-anchor="middle" x="117" y="-99.8" font-family="Times,serif" font-size="14.00">NxIconDirective</text>
</g>
<!-- NxIconDirective&#45;&gt;IconModule -->
<g id="edge2" class="edge">
<title>NxIconDirective&#45;&gt;IconModule</title>
<path fill="none" stroke="black" d="M151.87,-122.11C151.87,-122.11 151.87,-140.99 151.87,-140.99"/>
<polygon fill="black" stroke="black" points="148.37,-140.99 151.87,-150.99 155.37,-140.99 148.37,-140.99"/>
</g>
<!-- NxIconDirective&#45;&gt;NxIconModule -->
<g id="edge6" class="edge">
<title>NxIconDirective&#45;&gt;NxIconModule</title>
<path fill="none" stroke="black" d="M161.95,-122.04C161.95,-129.75 161.95,-137 161.95,-137 161.95,-137 397,-137 397,-137 397,-137 397,-140.76 397,-140.76"/>
<polygon fill="black" stroke="black" points="393.5,-140.76 397,-150.76 400.5,-140.76 393.5,-140.76"/>
</g>
<!-- NxIconComponent  -->
<g id="node4" class="node">
<title>NxIconComponent </title>
<polygon fill="#fb8072" stroke="black" points="314.31,-252 187.69,-252 187.69,-216 314.31,-216 314.31,-252"/>
<text text-anchor="middle" x="251" y="-229.8" font-family="Times,serif" font-size="14.00">NxIconComponent </text>
</g>
<!-- IconModule&#45;&gt;NxIconComponent  -->
<g id="edge3" class="edge">
<title>IconModule&#45;&gt;NxIconComponent </title>
<path fill="none" stroke="black" stroke-dasharray="5,2" d="M206.9,-187.11C206.9,-187.11 206.9,-205.99 206.9,-205.99"/>
<polygon fill="black" stroke="black" points="203.4,-205.99 206.9,-215.99 210.4,-205.99 203.4,-205.99"/>
</g>
<!-- NxIconDirective  -->
<g id="node5" class="node">
<title>NxIconDirective </title>
<polygon fill="#fb8072" stroke="black" points="169.57,-252 56.43,-252 56.43,-216 169.57,-216 169.57,-252"/>
<text text-anchor="middle" x="113" y="-229.8" font-family="Times,serif" font-size="14.00">NxIconDirective </text>
</g>
<!-- IconModule&#45;&gt;NxIconDirective  -->
<g id="edge4" class="edge">
<title>IconModule&#45;&gt;NxIconDirective </title>
<path fill="none" stroke="black" stroke-dasharray="5,2" d="M155.78,-187.11C155.78,-187.11 155.78,-205.99 155.78,-205.99"/>
<polygon fill="black" stroke="black" points="152.28,-205.99 155.78,-215.99 159.28,-205.99 152.28,-205.99"/>
</g>
</g>
</svg>
